<svg xmlns="http://www.w3.org/2000/svg" width="58.75" height="60" viewBox="0 0 58.75 60">
  <g id="amor" transform="translate(-5.332)">
    <path id="Trazado_5038" data-name="Trazado 5038" d="M53.037,0H16.378A11.046,11.046,0,0,0,5.332,11.046V35.09A11.046,11.046,0,0,0,16.378,46.135h5.261a.453.453,0,0,1,.453.453v11.86a1.548,1.548,0,0,0,2.676,1.061L37.212,46.278a.453.453,0,0,1,.33-.143H53.037A11.046,11.046,0,0,0,64.082,35.09V11.046A11.046,11.046,0,0,0,53.037,0Z" transform="translate(0)" fill="#ec5569"/>
    <path id="Trazado_5039" data-name="Trazado 5039" d="M26.766,52.917a.459.459,0,0,0-.439-.477h-5.1c-5.913,0-10.707-5.208-10.707-11.631V15.49a12.589,12.589,0,0,1,.394-3.137,11.039,11.039,0,0,0-5.582,9.6V45.994A11.053,11.053,0,0,0,16.391,57.039h5.268a.453.453,0,0,1,.454.453v11.86a1.55,1.55,0,0,0,2.679,1.061l1.974-2.1v-15.4Z" transform="translate(0 -10.904)" fill="#e63950"/>
    <path id="Trazado_5040" data-name="Trazado 5040" d="M159.1,106.483h0a7.19,7.19,0,0,0-10.168,0l-1.586,1.586a.969.969,0,0,1-1.37,0l-1.561-1.561a7.19,7.19,0,0,0-10.168,0h0a7.19,7.19,0,0,0,0,10.168l11.73,11.73a.969.969,0,0,0,1.37,0L159.1,116.651A7.19,7.19,0,0,0,159.1,106.483Z" transform="translate(-111.966 -92.155)" fill="#ec5569"/>
    <path id="Trazado_5041" data-name="Trazado 5041" d="M159.1,106.483h0a7.19,7.19,0,0,0-10.168,0l-1.586,1.586a.969.969,0,0,1-1.37,0l-1.561-1.561a7.19,7.19,0,0,0-10.168,0h0a7.19,7.19,0,0,0,0,10.168l11.73,11.73a.969.969,0,0,0,1.37,0L159.1,116.651A7.19,7.19,0,0,0,159.1,106.483Z" transform="translate(-111.966 -92.155)" fill="#fff5f5"/>
    <path id="Trazado_5042" data-name="Trazado 5042" d="M138.009,116.88a7.19,7.19,0,0,1,0-10.168h0a7.154,7.154,0,0,1,3.2-1.855,7.185,7.185,0,0,0-6.965,1.855h0a7.19,7.19,0,0,0,0,10.168l11.73,11.73a.969.969,0,0,0,1.37,0l1.2-1.2Z" transform="translate(-111.956 -92.359)" fill="#dce6eb"/>
  </g>
</svg>
