<svg xmlns="http://www.w3.org/2000/svg" width="96" height="96" viewBox="0 0 96 96">
  <g id="exam" transform="translate(-0.001)">
    <path id="Trazado_4993" data-name="Trazado 4993" d="M108.035,116.334H36.767a6.742,6.742,0,0,0-6.732,6.735v50.522a6.983,6.983,0,0,0,5.671,6.844H109.1a6.983,6.983,0,0,0,5.671-6.844V123.069A6.742,6.742,0,0,0,108.035,116.334Z" transform="translate(-24.4 -94.553)" fill="#050505"/>
    <path id="Trazado_4994" data-name="Trazado 4994" d="M37.91,173.593V123.07a6.743,6.743,0,0,1,6.735-6.735H36.77a6.743,6.743,0,0,0-6.735,6.735v50.522a6.984,6.984,0,0,0,5.674,6.844h7.875a6.984,6.984,0,0,1-5.674-6.844Z" transform="translate(-24.4 -94.554)" fill="#050505"/>
    <path id="Trazado_4995" data-name="Trazado 4995" d="M94.877,457.031H1.125A1.13,1.13,0,0,0,0,458.167v3.906a5.259,5.259,0,0,0,5.216,5.27H90.785A5.259,5.259,0,0,0,96,462.073v-3.906a1.13,1.13,0,0,0-1.124-1.136Z" transform="translate(0 -371.342)" fill="#dfebfa"/>
    <path id="Trazado_4996" data-name="Trazado 4996" d="M94.877,457.031H1.125A1.13,1.13,0,0,0,0,458.167v3.906a5.259,5.259,0,0,0,5.216,5.27H90.785A5.259,5.259,0,0,0,96,462.073v-3.906a1.13,1.13,0,0,0-1.124-1.136Z" transform="translate(0 -371.342)" fill="#dfebfa"/>
    <path id="Trazado_4997" data-name="Trazado 4997" d="M16.227,462.073v-3.906a1.13,1.13,0,0,1,1.125-1.136H1.126A1.13,1.13,0,0,0,0,458.167v3.906a5.26,5.26,0,0,0,5.219,5.27H21.446A5.26,5.26,0,0,1,16.227,462.073Z" transform="translate(0 -371.342)" fill="#b1dbfc"/>
    <path id="Trazado_4998" data-name="Trazado 4998" d="M181.32,457.031v2.621a2.337,2.337,0,0,0,2.319,2.342h23.379a2.337,2.337,0,0,0,2.319-2.342v-2.621" transform="translate(-147.328 -371.342)" fill="#b1dbfc"/>
    <path id="Trazado_4999" data-name="Trazado 4999" d="M193.977,459.653v-2.621H181.32v2.621a2.337,2.337,0,0,0,2.319,2.342H196.3A2.337,2.337,0,0,1,193.977,459.653Z" transform="translate(-147.324 -371.343)" fill="#8bcaff"/>
    <path id="Trazado_5000" data-name="Trazado 5000" d="M133.716,148.35H63.5a1.208,1.208,0,0,0-1.208,1.209v49.489a1.208,1.208,0,0,0,1.208,1.209h70.215a1.208,1.208,0,0,0,1.208-1.209V149.559A1.208,1.208,0,0,0,133.716,148.35Z" transform="translate(-50.607 -120.548)" fill="#ffe181"/>
    <path id="Trazado_5001" data-name="Trazado 5001" d="M70.167,199.048V149.559a1.209,1.209,0,0,1,1.208-1.209H63.5a1.208,1.208,0,0,0-1.208,1.209v49.489a1.209,1.209,0,0,0,1.208,1.209h7.875A1.209,1.209,0,0,1,70.167,199.048Z" transform="translate(-50.606 -120.548)" fill="#fec458"/>
    <path id="Trazado_5002" data-name="Trazado 5002" d="M165.566,0H126.633L115.391,11.251V69.319a2.492,2.492,0,0,0,2.491,2.493H165.61a2.492,2.492,0,0,0,2.491-2.493V2.537A2.536,2.536,0,0,0,165.566,0Z" transform="translate(-93.745)" fill="#dfebfa"/>
    <path id="Trazado_5003" data-name="Trazado 5003" d="M120.125,97.345V34.739l-4.734,4.734V97.541a2.493,2.493,0,0,0,2.493,2.493h4.093A2.881,2.881,0,0,1,120.125,97.345Z" transform="translate(-93.755 -28.223)" fill="#b1dbfc"/>
    <path id="Trazado_5004" data-name="Trazado 5004" d="M115.391,11.251H124.1a2.537,2.537,0,0,0,2.537-2.537V0Z" transform="translate(-93.756)" fill="#b1dbfc"/>
    <path id="Trazado_5005" data-name="Trazado 5005" d="M126.642,0,115.391,11.251h4.688l6.563-6.563Z" transform="translate(-93.756)" fill="#8bcaff"/>
    <g id="Grupo_19730" data-name="Grupo 19730" transform="translate(28.424 15.232)">
      <path id="Trazado_5006" data-name="Trazado 5006" d="M155.053,88.271l-3.029-3.029a1.449,1.449,0,0,1,2.049-2.05l2,2,3.53-3.53a1.449,1.449,0,1,1,2.049,2.05L157.1,88.271A1.449,1.449,0,0,1,155.053,88.271Z" transform="translate(-151.599 -81.242)" fill="#43cb8e"/>
    </g>
    <g id="Grupo_19731" data-name="Grupo 19731" transform="translate(28.424 28.298)">
      <path id="Trazado_5007" data-name="Trazado 5007" d="M155.053,157.958l-3.029-3.029a1.449,1.449,0,1,1,2.049-2.05l2,2,3.53-3.53a1.449,1.449,0,0,1,2.049,2.05l-4.555,4.555A1.449,1.449,0,0,1,155.053,157.958Z" transform="translate(-151.599 -150.929)" fill="#43cb8e"/>
    </g>
    <g id="Grupo_19732" data-name="Grupo 19732" transform="translate(28.424 41.63)">
      <path id="Trazado_5008" data-name="Trazado 5008" d="M155.053,229.062l-3.029-3.029a1.449,1.449,0,1,1,2.049-2.05l2,2,3.53-3.53a1.449,1.449,0,0,1,2.049,2.05l-4.555,4.555A1.449,1.449,0,0,1,155.053,229.062Z" transform="translate(-151.599 -222.033)" fill="#43cb8e"/>
    </g>
    <g id="Grupo_19734" data-name="Grupo 19734" transform="translate(41.983 14.974)">
      <g id="Grupo_19733" data-name="Grupo 19733">
        <path id="Trazado_5009" data-name="Trazado 5009" d="M249,82.724H225.388a1.449,1.449,0,1,1,0-2.9H249a1.449,1.449,0,0,1,0,2.9Z" transform="translate(-223.939 -79.825)" fill="#b1dbfc"/>
      </g>
    </g>
    <g id="Grupo_19736" data-name="Grupo 19736" transform="translate(41.983 20.684)">
      <g id="Grupo_19735" data-name="Grupo 19735">
        <path id="Trazado_5010" data-name="Trazado 5010" d="M249,113.217H225.388a1.449,1.449,0,1,1,0-2.9H249a1.449,1.449,0,0,1,0,2.9Z" transform="translate(-223.939 -110.318)" fill="#b1dbfc"/>
      </g>
    </g>
    <g id="Grupo_19738" data-name="Grupo 19738" transform="translate(41.983 28.299)">
      <g id="Grupo_19737" data-name="Grupo 19737">
        <path id="Trazado_5011" data-name="Trazado 5011" d="M249,153.828H225.388a1.449,1.449,0,1,1,0-2.9H249a1.449,1.449,0,0,1,0,2.9Z" transform="translate(-223.939 -150.929)" fill="#b1dbfc"/>
      </g>
    </g>
    <g id="Grupo_19740" data-name="Grupo 19740" transform="translate(41.983 34.016)">
      <g id="Grupo_19739" data-name="Grupo 19739">
        <path id="Trazado_5012" data-name="Trazado 5012" d="M249,184.321H225.388a1.449,1.449,0,1,1,0-2.9H249a1.449,1.449,0,0,1,0,2.9Z" transform="translate(-223.939 -181.422)" fill="#b1dbfc"/>
      </g>
    </g>
    <g id="Grupo_19742" data-name="Grupo 19742" transform="translate(41.983 41.631)">
      <g id="Grupo_19741" data-name="Grupo 19741">
        <path id="Trazado_5013" data-name="Trazado 5013" d="M249,224.932H225.388a1.449,1.449,0,1,1,0-2.9H249a1.449,1.449,0,0,1,0,2.9Z" transform="translate(-223.939 -222.033)" fill="#b1dbfc"/>
      </g>
    </g>
    <g id="Grupo_19744" data-name="Grupo 19744" transform="translate(41.983 47.348)">
      <g id="Grupo_19743" data-name="Grupo 19743">
        <path id="Trazado_5014" data-name="Trazado 5014" d="M249,255.425H225.388a1.449,1.449,0,1,1,0-2.9H249a1.449,1.449,0,0,1,0,2.9Z" transform="translate(-223.939 -252.526)" fill="#b1dbfc"/>
      </g>
    </g>
    <g id="Grupo_19745" data-name="Grupo 19745" transform="translate(28.424 54.961)">
      <path id="Trazado_5015" data-name="Trazado 5015" d="M155.053,300.166l-3.029-3.029a1.449,1.449,0,0,1,2.049-2.049l2,2,3.53-3.53a1.449,1.449,0,0,1,2.049,2.05l-4.555,4.555A1.449,1.449,0,0,1,155.053,300.166Z" transform="translate(-151.599 -293.137)" fill="#43cb8e"/>
    </g>
    <g id="Grupo_19747" data-name="Grupo 19747" transform="translate(41.983 54.963)">
      <g id="Grupo_19746" data-name="Grupo 19746">
        <path id="Trazado_5016" data-name="Trazado 5016" d="M249,296.036H225.388a1.449,1.449,0,1,1,0-2.9H249a1.449,1.449,0,0,1,0,2.9Z" transform="translate(-223.939 -293.137)" fill="#b1dbfc"/>
      </g>
    </g>
    <g id="Grupo_19749" data-name="Grupo 19749" transform="translate(41.983 60.68)">
      <g id="Grupo_19748" data-name="Grupo 19748">
        <path id="Trazado_5017" data-name="Trazado 5017" d="M249,326.528H225.388a1.449,1.449,0,1,1,0-2.9H249a1.449,1.449,0,0,1,0,2.9Z" transform="translate(-223.939 -323.63)" fill="#b1dbfc"/>
      </g>
    </g>
  </g>
</svg>
