<svg xmlns="http://www.w3.org/2000/svg" width="60" height="60" viewBox="0 0 60 60">
  <g id="perfil" transform="translate(-565 100)">
    <g id="Grupo_19831" data-name="Grupo 19831" transform="translate(565 -100)">
      <g id="Grupo_19817" data-name="Grupo 19817" transform="translate(0 0.018)">
        <path id="Trazado_5052" data-name="Trazado 5052" d="M29.992,56.763l11.882-3A30.715,30.715,0,0,0,28.96.149,30,30,0,0,0,8.881,51.432Z" transform="translate(0 -0.149)" fill="#a8abaf"/>
      </g>
      <g id="Grupo_19818" data-name="Grupo 19818" transform="translate(26.092)">
        <path id="Trazado_5053" data-name="Trazado 5053" d="M249.717,29.991A29.914,29.914,0,0,1,237.64,54.016l10.815-2.723A29.97,29.97,0,0,0,227.281,0a30.47,30.47,0,0,0-3.824.24,30.028,30.028,0,0,1,26.26,29.751Z" transform="translate(-223.457 0)" fill="#7d7d7d"/>
      </g>
      <g id="Grupo_19830" data-name="Grupo 19830" transform="translate(8.23 8.611)">
        <g id="Grupo_19829" data-name="Grupo 19829">
          <g id="Grupo_19828" data-name="Grupo 19828">
            <path id="Trazado_5054" data-name="Trazado 5054" d="M178.512,76.06a2.772,2.772,0,0,0-2.761-2.782h-9.516a6.379,6.379,0,0,0-6.355,6.4V86.79H182.3V79.782A2.772,2.772,0,0,0,179.538,77h-.093A.936.936,0,0,1,178.512,76.06Z" transform="translate(-149.321 -73.278)" fill="#191919"/>
            <path id="Trazado_5055" data-name="Trazado 5055" d="M291.869,77h-.094a.94.94,0,0,1-.94-.94,2.782,2.782,0,0,0-2.782-2.782H287V86.789h7.649V79.781A2.782,2.782,0,0,0,291.869,77Z" transform="translate(-261.623 -73.277)" fill="#050505"/>
            <path id="Trazado_5056" data-name="Trazado 5056" d="M111.584,338.33a6.638,6.638,0,0,0-2.667-1.615l-8.18-2.6L91.8,333.8l-8.94.315-8.18,2.6a6.682,6.682,0,0,0-4.648,6.373v2.244a29.824,29.824,0,0,0,20.738,9.392A30.754,30.754,0,0,0,111.584,338.33Z" transform="translate(-70.032 -303.352)" fill="#3a3b3c"/>
            <path id="Trazado_5057" data-name="Trazado 5057" d="M249.188,376.065v-2.244a6.683,6.683,0,0,0-2.48-5.2,30.109,30.109,0,0,1-23.191,16.607,30.349,30.349,0,0,0,3.764.242,32.151,32.151,0,0,0,3.622-.209,30.006,30.006,0,0,0,18.286-9.2Z" transform="translate(-205.648 -334.085)" fill="#2f3031"/>
            <path id="Trazado_5058" data-name="Trazado 5058" d="M210.645,338.636c1.82-3.614,6.56-13.875,5.208-20.284l-5.888-2.291-5.893,2.292c-1.393,6.607,3.686,17.307,5.368,20.6Q210.048,338.805,210.645,338.636Z" transform="translate(-188.194 -287.697)" fill="#e4f6ff"/>
            <path id="Trazado_5059" data-name="Trazado 5059" d="M231.414,413.263l-2.387-9.391h-2.793l-2.381,9.366,2.945,3.278q1.121-.257,2.21-.594Z" transform="translate(-205.86 -365.19)" fill="#e8505b"/>
            <path id="Trazado_5060" data-name="Trazado 5060" d="M244.943,499.306c.244.006.488.011.733.011.284,0,.567-.005.849-.013l1.517-1.676a29.85,29.85,0,0,1-3.679,1.032Z" transform="translate(-223.962 -447.928)" fill="#dd636e"/>
            <g id="Grupo_19826" data-name="Grupo 19826" transform="translate(10.475 7.538)">
              <g id="Grupo_19825" data-name="Grupo 19825" transform="translate(6.265 17.121)">
                <g id="Grupo_19824" data-name="Grupo 19824">
                  <g id="Grupo_19823" data-name="Grupo 19823">
                    <g id="Grupo_19822" data-name="Grupo 19822">
                      <g id="Grupo_19821" data-name="Grupo 19821">
                        <g id="Grupo_19820" data-name="Grupo 19820">
                          <g id="Grupo_19819" data-name="Grupo 19819">
                            <path id="Trazado_5061" data-name="Trazado 5061" d="M223.251,288.413v-5.3H213.194v5.3c0,2.777,5.028,5.811,5.028,5.811S223.251,291.19,223.251,288.413Z" transform="translate(-213.194 -283.117)" fill="#ffddce"/>
                          </g>
                        </g>
                      </g>
                    </g>
                  </g>
                </g>
              </g>
              <path id="Trazado_5062" data-name="Trazado 5062" d="M182.468,142.465h-1.922a1.936,1.936,0,0,1-1.936-1.936V139.47a2.044,2.044,0,0,0-2.685-1.94,15.136,15.136,0,0,1-9.5,0h0a2.044,2.044,0,0,0-2.685,1.94v1.06a1.936,1.936,0,0,1-1.936,1.936H159.88v3.166a1.465,1.465,0,0,0,1.465,1.465.482.482,0,0,1,.479.455,9.369,9.369,0,0,0,18.7,0A.482.482,0,0,1,181,147.1a1.465,1.465,0,0,0,1.465-1.465v-3.166Z" transform="translate(-159.88 -137.424)" fill="#ffddce"/>
              <path id="Trazado_5063" data-name="Trazado 5063" d="M257.672,142.468a1.936,1.936,0,0,1-1.936-1.936v-1.059a2.044,2.044,0,0,0-2.685-1.94q-.548.181-1.105.318v10.456a9.367,9.367,0,0,1-4.668,7.963,9.359,9.359,0,0,0,10.373-8.716.482.482,0,0,1,.479-.455,1.465,1.465,0,0,0,1.465-1.465v-3.166h-1.922Z" transform="translate(-237.007 -137.427)" fill="#ffcbbe"/>
            </g>
            <g id="Grupo_19827" data-name="Grupo 19827" transform="translate(12.796 28.419)">
              <path id="Trazado_5064" data-name="Trazado 5064" d="M183.58,316.06l-3.944,3.2,4.136,5.113a1.37,1.37,0,0,0,1.834.07l3.11-2.6Z" transform="translate(-179.636 -316.06)" fill="#f4fbff"/>
              <path id="Trazado_5065" data-name="Trazado 5065" d="M261.821,316.06l-4.923,5.79,2.923,2.5a1.37,1.37,0,0,0,1.839-.053l4.106-5.031Z" transform="translate(-247.819 -316.06)" fill="#f4fbff"/>
            </g>
          </g>
          <path id="Trazado_5066" data-name="Trazado 5066" d="M164.729,316.06l-5.788,2.844a.877.877,0,0,0-.393,1.189l1.134,2.2a1.472,1.472,0,0,1-.268,1.717l-.706.7a1.469,1.469,0,0,0-.36,1.5c1.369,4.174,7.959,10.556,10.453,12.865q.252.007.5.009C167.5,335.566,161.088,322.2,164.729,316.06Z" transform="translate(-147.959 -287.697)" fill="#050505"/>
          <path id="Trazado_5067" data-name="Trazado 5067" d="M269.756,324.008a1.472,1.472,0,0,1-.268-1.717l1.134-2.2a.877.877,0,0,0-.393-1.189l-5.788-2.844c3.64,6.141-2.764,19.5-4.574,23.021q.255,0,.509-.013c2.5-2.314,9.078-8.689,10.446-12.859a1.469,1.469,0,0,0-.36-1.5Z" transform="translate(-237.673 -287.697)" fill="#050505"/>
          <path id="Trazado_5068" data-name="Trazado 5068" d="M233.9,365.327l-3.062,2.558,1.56,1.972h2.793l1.56-2.088Z" transform="translate(-212.025 -331.129)" fill="#e8505b"/>
        </g>
      </g>
    </g>
  </g>
</svg>
