<svg id="Componente_69_1" data-name="Componente 69 – 1" xmlns="http://www.w3.org/2000/svg" width="20" height="20" viewBox="0 0 20 20">
  <path id="Trazado_4861" data-name="Trazado 4861" d="M11.875,2.375A1.875,1.875,0,1,0,10,4.25,1.875,1.875,0,0,0,11.875,2.375ZM10,16.75a1.875,1.875,0,1,0,1.875,1.875A1.875,1.875,0,0,0,10,16.75Zm8.125-8.125A1.875,1.875,0,1,0,20,10.5,1.875,1.875,0,0,0,18.125,8.625ZM3.75,10.5a1.875,1.875,0,1,0-1.875,1.875A1.875,1.875,0,0,0,3.75,10.5Zm.5,3.87A1.875,1.875,0,1,0,6.13,16.245,1.875,1.875,0,0,0,4.255,14.37Zm11.49,0a1.875,1.875,0,1,0,1.875,1.875A1.875,1.875,0,0,0,15.745,14.37ZM4.255,2.88A1.875,1.875,0,1,0,6.13,4.755,1.875,1.875,0,0,0,4.255,2.88Z" transform="translate(0 -0.5)" fill="#fafafa"/>
</svg>
